999
dxfrw 0.6.3
  0
SECTION
  2
HEADER
  9
$ACADVER
  1
AC1021
  9
$DWGCODEPAGE
  3
ANSI_1252
  9
$INSBASE
 10
0
 20
0
 30
0
  9
$EXTMIN
 10
0
 20
0
 30
0
  9
$EXTMAX
 10
210
 20
297
 30
0
  9
$LIMMIN
 10
0
 20
0
  9
$LIMMAX
 10
420
 20
297
  9
$ORTHOMODE
 70
    0
  9
$REGENMODE
 70
    1
  9
$FILLMODE
 70
    1
  9
$QTEXTMODE
 70
    0
  9
$MIRRTEXT
 70
    0
  9
$LTSCALE
 40
1
  9
$ATTMODE
 70
    0
  9
$TEXTSIZE
 40
2.5
  9
$TRACEWID
 40
15.68
  9
$TEXTSTYLE
  7
STANDARD
  9
$CLAYER
  8
2B
  9
$CELTYPE
  6
BYLAYER
  9
$CECOLOR
 62
  256
  9
$CELTSCALE
 40
1
  9
$DISPSILH
 70
    0
  9
$DIMSCALE
 40
2.5
  9
$DIMASZ
 40
2.5
  9
$DIMEXO
 40
0.625
  9
$DIMDLI
 40
3.75
  9
$DIMRND
 40
0
  9
$DIMDLE
 40
0
  9
$DIMEXE
 40
1.25
  9
$DIMTP
 40
0
  9
$DIMTM
 40
0
  9
$DIMTXT
 40
2.5
  9
$DIMCEN
 40
2.5
  9
$DIMTSZ
 40
0
  9
$DIMTOL
 70
    0
  9
$DIMLIM
 70
    0
  9
$DIMTIH
 70
    0
  9
$DIMTOH
 70
    0
  9
$DIMSE1
 70
    0
  9
$DIMSE2
 70
    0
  9
$DIMTAD
 70
    1
  9
$DIMZIN
 70
    8
  9
$DIMBLK
  1

  9
$DIMASO
 70
    1
  9
$DIMSHO
 70
    1
  9
$DIMPOST
  1

  9
$DIMAPOST
  1

  9
$DIMALT
 70
    0
  9
$DIMALTD
 70
    3
  9
$DIMALTF
 40
0.03937
  9
$DIMLFAC
 40
1
  9
$DIMTOFL
 70
    1
  9
$DIMTVP
 40
0
  9
$DIMTIX
 70
    0
  9
$DIMSOXD
 70
    0
  9
$DIMSAH
 70
    0
  9
$DIMBLK1
  1

  9
$DIMBLK2
  1

  9
$DIMSTYLE
  2
STANDARD
  9
$DIMCLRD
 70
    0
  9
$DIMCLRE
 70
    0
  9
$DIMCLRT
 70
    0
  9
$DIMTFAC
 40
1
  9
$DIMGAP
 40
0.625
  9
$DIMJUST
 70
    0
  9
$DIMSD1
 70
    0
  9
$DIMSD2
 70
    0
  9
$DIMTOLJ
 70
    0
  9
$DIMTZIN
 70
    8
  9
$DIMALTZ
 70
    0
  9
$DIMALTTZ
 70
    0
  9
$DIMUPT
 70
    0
  9
$DIMDEC
 70
    2
  9
$DIMTDEC
 70
    2
  9
$DIMALTU
 70
    2
  9
$DIMALTTD
 70
    3
  9
$DIMTXSTY
  7
STANDARD
  9
$DIMAUNIT
 70
    0
  9
$DIMADEC
 70
    0
  9
$DIMALTRND
 40
0
  9
$DIMAZIN
 70
    0
  9
$DIMDSEP
 70
   44
  9
$DIMATFIT
 70
    3
  9
$DIMFRAC
 70
    0
  9
$DIMLDRBLK
  1
STANDARD
  9
$DIMLUNIT
 70
    2
  9
$DIMLWD
 70
   -2
  9
$DIMLWE
 70
   -2
  9
$DIMTMOVE
 70
    0
  9
$DIMFXL
 40
1
  9
$DIMFXLON
 70
    0
  9
$DIMJOGANG
 40
0.7854
  9
$DIMTFILL
 70
    0
  9
$DIMTFILLCLR
 70
    0
  9
$DIMARCSYM
 70
    0
  9
$DIMLTYPE
  6

  9
$DIMLTEX1
  6

  9
$DIMLTEX2
  6

  9
$LUNITS
 70
    2
  9
$LUPREC
 70
    4
  9
$SKETCHINC
 40
1
  9
$FILLETRAD
 40
0
  9
$AUNITS
 70
    0
  9
$AUPREC
 70
    2
  9
$MENU
  1
.
  9
$ELEVATION
 40
0
  9
$PELEVATION
 40
0
  9
$THICKNESS
 40
0
  9
$LIMCHECK
 70
    0
  9
$CHAMFERA
 40
0
  9
$CHAMFERB
 40
0
  9
$CHAMFERC
 40
0
  9
$CHAMFERD
 40
0
  9
$SKPOLY
 70
    0
  9
$USRTIMER
 70
    1
  9
$ANGBASE
 50
0
  9
$ANGDIR
 70
    0
  9
$PDMODE
 70
   34
  9
$PDSIZE
 40
0
  9
$PLINEWID
 40
0
  9
$SPLFRAME
 70
    0
  9
$SPLINETYPE
 70
    2
  9
$SPLINESEGS
 70
    8
  9
$HANDSEED
  5
20000
  9
$SURFTAB1
 70
    6
  9
$SURFTAB2
 70
    6
  9
$SURFTYPE
 70
    6
  9
$SURFU
 70
    6
  9
$SURFV
 70
    6
  9
$UCSBASE
  2

  9
$UCSNAME
  2

  9
$UCSORG
 10
0
 20
0
 30
0
  9
$UCSXDIR
 10
1
 20
0
 30
0
  9
$UCSYDIR
 10
0
 20
1
 30
0
  9
$UCSORTHOREF
  2

  9
$UCSORTHOVIEW
 70
    0
  9
$UCSORGTOP
 10
0
 20
0
 30
0
  9
$UCSORGBOTTOM
 10
0
 20
0
 30
0
  9
$UCSORGLEFT
 10
0
 20
0
 30
0
  9
$UCSORGRIGHT
 10
0
 20
0
 30
0
  9
$UCSORGFRONT
 10
0
 20
0
 30
0
  9
$UCSORGBACK
 10
0
 20
0
 30
0
  9
$PUCSBASE
  2

  9
$PUCSNAME
  2

  9
$PUCSORG
 10
0
 20
0
 30
0
  9
$PUCSXDIR
 10
1
 20
0
 30
0
  9
$PUCSYDIR
 10
0
 20
1
 30
0
  9
$PUCSORTHOREF
  2

  9
$PUCSORTHOVIEW
 70
    0
  9
$PUCSORGTOP
 10
0
 20
0
 30
0
  9
$PUCSORGBOTTOM
 10
0
 20
0
 30
0
  9
$PUCSORGLEFT
 10
0
 20
0
 30
0
  9
$PUCSORGRIGHT
 10
0
 20
0
 30
0
  9
$PUCSORGFRONT
 10
0
 20
0
 30
0
  9
$PUCSORGBACK
 10
0
 20
0
 30
0
  9
$USERI1
 70
    0
  9
$USERI2
 70
    0
  9
$USERI3
 70
    0
  9
$USERI4
 70
    0
  9
$USERI5
 70
    0
  9
$USERR1
 40
0
  9
$USERR2
 40
0
  9
$USERR3
 40
0
  9
$USERR4
 40
0
  9
$USERR5
 40
0
  9
$WORLDVIEW
 70
    1
  9
$SHADEDGE
 70
    3
  9
$SHADEDIF
 70
   70
  9
$TILEMODE
 70
    1
  9
$MAXACTVP
 70
   64
  9
$PINSBASE
 10
0
 20
0
 30
0
  9
$PLIMCHECK
 70
    0
  9
$PEXTMIN
 10
0
 20
0
 30
0
  9
$PEXTMAX
 10
0
 20
0
 30
0
  9
$GRIDMODE
 70
    1
  9
$SNAPSTYLE
 70
    0
  9
$PLIMMIN
 10
0
 20
0
  9
$PLIMMAX
 10
210
 20
297
  9
$UNITMODE
 70
    0
  9
$VISRETAIN
 70
    1
  9
$PLINEGEN
 70
    0
  9
$PSLTSCALE
 70
    1
  9
$TREEDEPTH
 70
 3020
  9
$CMLSTYLE
  2
Standard
  9
$CMLJUST
 70
    0
  9
$CMLSCALE
 40
20
  9
$PROXYGRAPHICS
 70
    1
  9
$MEASUREMENT
 70
    1
  9
$CELWEIGHT
370
   -1
  9
$ENDCAPS
280
    0
  9
$JOINSTYLE
280
    0
  9
$LWDISPLAY
290
    0
  9
$INSUNITS
 70
    4
  9
$HYPERLINKBASE
  1

  9
$STYLESHEET
  1

  9
$XEDIT
290
    1
  9
$CEPSNTYPE
380
    0
  9
$PSTYLEMODE
290
    1
  9
$EXTNAMES
290
    1
  9
$PSVPSCALE
 40
1
  9
$OLESTARTUP
290
    0
  9
$SORTENTS
280
  127
  9
$INDEXCTL
280
    0
  9
$HIDETEXT
280
    1
  9
$XCLIPFRAME
290
    0
  9
$HALOGAP
280
    0
  9
$OBSCOLOR
 70
  257
  9
$OBSLTYPE
280
    0
  9
$INTERSECTIONDISPLAY
280
    0
  9
$INTERSECTIONCOLOR
 70
  257
  9
$DIMASSOC
280
    1
  9
$PROJECTNAME
  1

  9
$CAMERADISPLAY
290
    0
  9
$LENSLENGTH
 40
50
  9
$CAMERAHEIGHT
 40
0
  9
$STEPSPERSEC
 40
2
  9
$STEPSIZE
 40
50
  9
$3DDWFPREC
 40
2
  9
$PSOLWIDTH
 40
5
  9
$PSOLHEIGHT
 40
80
  9
$LOFTANG1
 40
1.570796326794897
  9
$LOFTANG2
 40
1.570796326794897
  9
$LOFTMAG1
 40
0
  9
$LOFTMAG2
 40
0
  9
$LOFTPARAM
 70
    7
  9
$LOFTNORMALS
280
    1
  9
$LATITUDE
 40
1
  9
$LONGITUDE
 40
1
  9
$NORTHDIRECTION
 40
0
  9
$TIMEZONE
 70
-8000
  9
$LIGHTGLYPHDISPLAY
280
    1
  9
$TILEMODELIGHTSYNCH
280
    1
  9
$SOLIDHIST
280
    1
  9
$SHOWHIST
280
    1
  9
$DWFFRAME
280
    2
  9
$DGNFRAME
280
    0
  9
$REALWORLDSCALE
290
    1
  9
$INTERFERECOLOR
 62
    1
  9
$CSHADOW
280
    0
  9
$SHADOWPLANELOCATION
 40
0
  0
ENDSEC
  0
SECTION
  2
CLASSES
  0
ENDSEC
  0
SECTION
  2
TABLES
  0
TABLE
  2
VPORT
  5
8
330
0
100
AcDbSymbolTable
 70
    1
  0
VPORT
  5
31
330
2
100
AcDbSymbolTableRecord
100
AcDbViewportTableRecord
  2
*ACTIVE
 70
    0
 10
0
 20
0
 11
1
 21
1
 12
160.7833333333333
 22
150.3333333333333
 13
0
 23
0
 14
10
 24
10
 15
10
 25
10
 16
0
 26
0
 36
1
 17
0
 27
0
 37
0
 40
304.3333333333334
 41
1.42289156626506
 42
50
 43
0
 44
0
 50
0
 51
0
 71
    0
 72
  100
 73
    1
 74
    3
 75
    0
 76
    1
 77
    0
 78
    0
281
    0
 65
    1
110
0
120
0
130
0
111
1
121
0
131
0
112
0
122
1
132
0
 79
    0
146
0
348
10020
 60
    7
 61
    5
292
1
282
    1
141
0
142
0
 63
  250
421
3358443
  0
ENDTAB
  0
TABLE
  2
LTYPE
  5
5
330
0
100
AcDbSymbolTable
 70
    4
  0
LTYPE
  5
14
330
5
100
AcDbSymbolTableRecord
100
AcDbLinetypeTableRecord
  2
ByBlock
 70
    0
  3

 72
   65
 73
    0
 40
0
  0
LTYPE
  5
15
330
5
100
AcDbSymbolTableRecord
100
AcDbLinetypeTableRecord
  2
ByLayer
 70
    0
  3

 72
   65
 73
    0
 40
0
  0
LTYPE
  5
16
330
5
100
AcDbSymbolTableRecord
100
AcDbLinetypeTableRecord
  2
Continuous
 70
    0
  3
Solid line
 72
   65
 73
    0
 40
0
  0
LTYPE
  5
32
330
5
100
AcDbSymbolTableRecord
100
AcDbLinetypeTableRecord
  2
DOT
 70
    0
  3
Dot . . . . . . . . . . . . . . . . . . . . . .
 72
   65
 73
    2
 40
6.35
 49
0
 74
    0
 49
-6.35
 74
    0
  0
LTYPE
  5
33
330
5
100
AcDbSymbolTableRecord
100
AcDbLinetypeTableRecord
  2
DOTTINY
 70
    0
  3
Dot (.15x) .....................................
 72
   65
 73
    2
 40
0.9525
 49
0
 74
    0
 49
-0.9525
 74
    0
  0
LTYPE
  5
34
330
5
100
AcDbSymbolTableRecord
100
AcDbLinetypeTableRecord
  2
DOT2
 70
    0
  3
Dot (.5x) .....................................
 72
   65
 73
    2
 40
3.175
 49
0
 74
    0
 49
-3.175
 74
    0
  0
LTYPE
  5
35
330
5
100
AcDbSymbolTableRecord
100
AcDbLinetypeTableRecord
  2
DOTX2
 70
    0
  3
Dot (2x) .  .  .  .  .  .  .  .  .  .  .  .  .
 72
   65
 73
    2
 40
12.7
 49
0
 74
    0
 49
-12.7
 74
    0
  0
LTYPE
  5
36
330
5
100
AcDbSymbolTableRecord
100
AcDbLinetypeTableRecord
  2
DASHED
 70
    0
  3
Dashed _ _ _ _ _ _ _ _ _ _ _ _ _ _ _ _ _
 72
   65
 73
    2
 40
19.05
 49
12.7
 74
    0
 49
-6.35
 74
    0
  0
LTYPE
  5
37
330
5
100
AcDbSymbolTableRecord
100
AcDbLinetypeTableRecord
  2
DASHEDTINY
 70
    0
  3
Dashed (.15x) _ _ _ _ _ _ _ _ _ _ _ _ _ _ _ _ _
 72
   65
 73
    2
 40
2.8575
 49
1.905
 74
    0
 49
-0.9525
 74
    0
  0
LTYPE
  5
38
330
5
100
AcDbSymbolTableRecord
100
AcDbLinetypeTableRecord
  2
DASHED2
 70
    0
  3
Dashed (.5x) _ _ _ _ _ _ _ _ _ _ _ _ _ _ _ _ _
 72
   65
 73
    2
 40
9.524999999999999
 49
6.35
 74
    0
 49
-3.175
 74
    0
  0
LTYPE
  5
39
330
5
100
AcDbSymbolTableRecord
100
AcDbLinetypeTableRecord
  2
DASHEDX2
 70
    0
  3
Dashed (2x) ____  ____  ____  ____  ____  ___
 72
   65
 73
    2
 40
38.09999999999999
 49
25.4
 74
    0
 49
-12.7
 74
    0
  0
LTYPE
  5
3A
330
5
100
AcDbSymbolTableRecord
100
AcDbLinetypeTableRecord
  2
DASHDOT
 70
    0
  3
Dash dot __ . __ . __ . __ . __ . __ . __ . __
 72
   65
 73
    4
 40
25.4
 49
12.7
 74
    0
 49
-6.35
 74
    0
 49
0
 74
    0
 49
-6.35
 74
    0
  0
LTYPE
  5
3B
330
5
100
AcDbSymbolTableRecord
100
AcDbLinetypeTableRecord
  2
DASHDOTTINY
 70
    0
  3
Dash dot (.15x) _._._._._._._._._._._._._._._.
 72
   65
 73
    4
 40
3.81
 49
1.905
 74
    0
 49
-0.9525
 74
    0
 49
0
 74
    0
 49
-0.9525
 74
    0
  0
LTYPE
  5
3C
330
5
100
AcDbSymbolTableRecord
100
AcDbLinetypeTableRecord
  2
DASHDOT2
 70
    0
  3
Dash dot (.5x) _._._._._._._._._._._._._._._.
 72
   65
 73
    4
 40
12.7
 49
6.35
 74
    0
 49
-3.175
 74
    0
 49
0
 74
    0
 49
-3.175
 74
    0
  0
LTYPE
  5
3D
330
5
100
AcDbSymbolTableRecord
100
AcDbLinetypeTableRecord
  2
DASHDOTX2
 70
    0
  3
Dash dot (2x) ____  .  ____  .  ____  .  ___
 72
   65
 73
    4
 40
50.8
 49
25.4
 74
    0
 49
-12.7
 74
    0
 49
0
 74
    0
 49
-12.7
 74
    0
  0
LTYPE
  5
3E
330
5
100
AcDbSymbolTableRecord
100
AcDbLinetypeTableRecord
  2
DIVIDE
 70
    0
  3
Divide ____ . . ____ . . ____ . . ____ . . ____
 72
   65
 73
    6
 40
31.75
 49
12.7
 74
    0
 49
-6.35
 74
    0
 49
0
 74
    0
 49
-6.35
 74
    0
 49
0
 74
    0
 49
-6.35
 74
    0
  0
LTYPE
  5
3F
330
5
100
AcDbSymbolTableRecord
100
AcDbLinetypeTableRecord
  2
DIVIDETINY
 70
    0
  3
Divide (.15x) __..__..__..__..__..__..__..__.._
 72
   65
 73
    6
 40
4.7625
 49
1.905
 74
    0
 49
-0.9525
 74
    0
 49
0
 74
    0
 49
-0.9525
 74
    0
 49
0
 74
    0
 49
-0.9525
 74
    0
  0
LTYPE
  5
40
330
5
100
AcDbSymbolTableRecord
100
AcDbLinetypeTableRecord
  2
DIVIDE2
 70
    0
  3
Divide (.5x) __..__..__..__..__..__..__..__.._
 72
   65
 73
    6
 40
15.875
 49
6.35
 74
    0
 49
-3.175
 74
    0
 49
0
 74
    0
 49
-3.175
 74
    0
 49
0
 74
    0
 49
-3.175
 74
    0
  0
LTYPE
  5
41
330
5
100
AcDbSymbolTableRecord
100
AcDbLinetypeTableRecord
  2
DIVIDEX2
 70
    0
  3
Divide (2x) ________  .  .  ________  .  .  _
 72
   65
 73
    6
 40
63.5
 49
25.4
 74
    0
 49
-12.7
 74
    0
 49
0
 74
    0
 49
-12.7
 74
    0
 49
0
 74
    0
 49
-12.7
 74
    0
  0
LTYPE
  5
42
330
5
100
AcDbSymbolTableRecord
100
AcDbLinetypeTableRecord
  2
BORDER
 70
    0
  3
Border __ __ . __ __ . __ __ . __ __ . __ __ .
 72
   65
 73
    6
 40
44.45
 49
12.7
 74
    0
 49
-6.35
 74
    0
 49
12.7
 74
    0
 49
-6.35
 74
    0
 49
0
 74
    0
 49
-6.35
 74
    0
  0
LTYPE
  5
43
330
5
100
AcDbSymbolTableRecord
100
AcDbLinetypeTableRecord
  2
BORDERTINY
 70
    0
  3
Border (.15x) __.__.__.__.__.__.__.__.__.__.__.
 72
   65
 73
    6
 40
6.6675
 49
1.905
 74
    0
 49
-0.9525
 74
    0
 49
1.905
 74
    0
 49
-0.9525
 74
    0
 49
0
 74
    0
 49
-0.9525
 74
    0
  0
LTYPE
  5
44
330
5
100
AcDbSymbolTableRecord
100
AcDbLinetypeTableRecord
  2
BORDER2
 70
    0
  3
Border (.5x) __.__.__.__.__.__.__.__.__.__.__.
 72
   65
 73
    6
 40
22.225
 49
6.35
 74
    0
 49
-3.175
 74
    0
 49
6.35
 74
    0
 49
-3.175
 74
    0
 49
0
 74
    0
 49
-3.175
 74
    0
  0
LTYPE
  5
45
330
5
100
AcDbSymbolTableRecord
100
AcDbLinetypeTableRecord
  2
BORDERX2
 70
    0
  3
Border (2x) ____  ____  .  ____  ____  .  ___
 72
   65
 73
    6
 40
88.89999999999999
 49
25.4
 74
    0
 49
-12.7
 74
    0
 49
25.4
 74
    0
 49
-12.7
 74
    0
 49
0
 74
    0
 49
-12.7
 74
    0
  0
LTYPE
  5
46
330
5
100
AcDbSymbolTableRecord
100
AcDbLinetypeTableRecord
  2
CENTER
 70
    0
  3
Center ____ _ ____ _ ____ _ ____ _ ____ _ ____
 72
   65
 73
    4
 40
50.8
 49
31.75
 74
    0
 49
-6.35
 74
    0
 49
6.35
 74
    0
 49
-6.35
 74
    0
  0
LTYPE
  5
47
330
5
100
AcDbSymbolTableRecord
100
AcDbLinetypeTableRecord
  2
CENTERTINY
 70
    0
  3
Center (.15x) ___ _ ___ _ ___ _ ___ _ ___ _ ___
 72
   65
 73
    4
 40
7.619999999999999
 49
4.7625
 74
    0
 49
-0.9525
 74
    0
 49
0.9525
 74
    0
 49
-0.9525
 74
    0
  0
LTYPE
  5
48
330
5
100
AcDbSymbolTableRecord
100
AcDbLinetypeTableRecord
  2
CENTER2
 70
    0
  3
Center (.5x) ___ _ ___ _ ___ _ ___ _ ___ _ ___
 72
   65
 73
    4
 40
28.575
 49
19.05
 74
    0
 49
-3.175
 74
    0
 49
3.175
 74
    0
 49
-3.175
 74
    0
  0
LTYPE
  5
49
330
5
100
AcDbSymbolTableRecord
100
AcDbLinetypeTableRecord
  2
CENTERX2
 70
    0
  3
Center (2x) ________  __  ________  __  _____
 72
   65
 73
    4
 40
101.6
 49
63.5
 74
    0
 49
-12.7
 74
    0
 49
12.7
 74
    0
 49
-12.7
 74
    0
  0
ENDTAB
  0
TABLE
  2
LAYER
  5
2
330
0
100
AcDbSymbolTable
 70
    1
  0
LAYER
  5
10
330
2
100
AcDbSymbolTableRecord
100
AcDbLayerTableRecord
  2
0
 70
    1
 62
    7
  6
CONTINUOUS
370
    0
390
F
  0
LAYER
  5
4A
330
2
100
AcDbSymbolTableRecord
100
AcDbLayerTableRecord
  2
2B
 70
    0
 62
    7
  6
CONTINUOUS
370
   50
390
F
  0
LAYER
  5
4B
330
2
100
AcDbSymbolTableRecord
100
AcDbLayerTableRecord
  2
2H
 70
    0
 62
    7
  6
CONTINUOUS
370
   18
390
F
  0
LAYER
  5
4C
330
2
100
AcDbSymbolTableRecord
100
AcDbLayerTableRecord
  2
GEOMETRIA
 70
    1
 62
    7
  6
CONTINUOUS
370
  200
390
F
  0
LAYER
  5
4D
330
2
100
AcDbSymbolTableRecord
100
AcDbLayerTableRecord
  2
MARCO
 70
    0
 62
    7
  6
CONTINUOUS
370
   50
390
F
  0
LAYER
  5
4E
330
2
100
AcDbSymbolTableRecord
100
AcDbLayerTableRecord
  2
ROTULO_2B
 70
    0
 62
    7
  6
CONTINUOUS
370
   50
390
F
  0
LAYER
  5
4F
330
2
100
AcDbSymbolTableRecord
100
AcDbLayerTableRecord
  2
ROTULO_2H
 70
    0
 62
    7
  6
CONTINUOUS
370
   18
390
F
  0
ENDTAB
  0
TABLE
  2
STYLE
  5
3
330
0
100
AcDbSymbolTable
 70
    3
  0
STYLE
  5
50
330
2
100
AcDbSymbolTableRecord
100
AcDbTextStyleTableRecord
  2
Standard
 70
    0
 40
0
 41
1
 50
0
 71
    0
 42
1
  3
txt
  4

  0
ENDTAB
  0
TABLE
  2
VIEW
  5
6
330
0
100
AcDbSymbolTable
 70
    0
  0
ENDTAB
  0
TABLE
  2
UCS
  5
7
330
0
100
AcDbSymbolTable
 70
    0
  0
ENDTAB
  0
TABLE
  2
APPID
  5
9
330
0
100
AcDbSymbolTable
 70
    1
  0
APPID
  5
12
330
9
100
AcDbSymbolTableRecord
100
AcDbRegAppTableRecord
  2
ACAD
 70
    0
  0
APPID
  5
51
330
9
100
AcDbSymbolTableRecord
100
AcDbRegAppTableRecord
  2
LibreCad
 70
    0
  0
ENDTAB
  0
TABLE
  2
DIMSTYLE
  5
A
330
0
100
AcDbSymbolTable
 70
    1
100
AcDbDimStyleTable
 71
    1
  0
DIMSTYLE
105
52
330
A
100
AcDbSymbolTableRecord
100
AcDbDimStyleTableRecord
  2
Standard
 70
    0
 40
2.5
 41
2.5
 42
0.625
 43
0.38
 44
1.25
 45
0
 46
0
 47
0
 48
0
 49
1
140
2.5
141
0.09
142
0
143
25.4
144
1
145
0
146
1
147
0.625
148
0
 71
    0
 72
    0
 73
    0
 74
    1
 75
    0
 76
    0
 77
    0
 78
    8
 79
    0
170
    0
171
    2
172
    0
173
    0
174
    0
175
    0
176
    0
177
    0
178
    0
179
    0
271
    2
272
    4
273
    2
274
    2
275
    0
276
    0
277
    2
278
   44
279
    0
280
    0
281
    0
282
    0
283
    1
284
    0
285
    0
286
    0
288
    0
289
    3
340
STANDARD
341

371
   -2
372
   -2
  0
ENDTAB
  0
TABLE
  2
BLOCK_RECORD
  5
1
330
0
100
AcDbSymbolTable
 70
    2
  0
BLOCK_RECORD
  5
1F
330
1
100
AcDbSymbolTableRecord
100
AcDbBlockTableRecord
  2
*Model_Space
 70
    0
280
    1
281
    0
  0
BLOCK_RECORD
  5
1E
330
1
100
AcDbSymbolTableRecord
100
AcDbBlockTableRecord
  2
*Paper_Space
 70
    0
280
    1
281
    0
  0
ENDTAB
  0
ENDSEC
  0
SECTION
  2
BLOCKS
  0
BLOCK
  5
20
330
1F
100
AcDbEntity
  8
0
100
AcDbBlockBegin
  2
*Model_Space
 70
    0
 10
0
 20
0
 30
0
  3
*Model_Space
  1

  0
ENDBLK
  5
21
330
1F
100
AcDbEntity
  8
0
100
AcDbBlockEnd
  0
BLOCK
  5
1C
330
1B
100
AcDbEntity
  8
0
100
AcDbBlockBegin
  2
*Paper_Space
 70
    0
 10
0
 20
0
 30
0
  3
*Paper_Space
  1

  0
ENDBLK
  5
1D
330
1F
100
AcDbEntity
  8
0
100
AcDbBlockEnd
  0
ENDSEC
  0
SECTION
  2
ENTITIES
  0
LWPOLYLINE
  5
53
100
AcDbEntity
  8
MARCO
  6
ByLayer
 62
  256
370
   -1
100
AcDbPolyline
 90
    4
 70
    1
 43
0
 10
0
 20
0
 10
210
 20
0
 10
210
 20
297
 10
0
 20
297
  0
LWPOLYLINE
  5
54
100
AcDbEntity
  8
MARCO
  6
ByLayer
 62
  256
370
   -1
100
AcDbPolyline
 90
    4
 70
    1
 43
0
 10
25
 20
10
 10
200
 20
10
 10
200
 20
287
 10
25
 20
287
  0
LWPOLYLINE
  5
55
100
AcDbEntity
  8
ROTULO_2B
  6
ByLayer
 62
  256
370
   -1
100
AcDbPolyline
 90
    4
 70
    1
 43
0
 10
25
 20
10
 10
200
 20
10
 10
200
 20
30
 10
25
 20
30
  0
LINE
  5
56
100
AcDbEntity
  8
ROTULO_2B
  6
ByLayer
 62
  256
370
   -1
100
AcDbLine
 10
25
 20
20
 11
200
 21
20
  0
LINE
  5
57
100
AcDbEntity
  8
ROTULO_2H
  6
ByLayer
 62
  256
370
   -1
100
AcDbLine
 10
25
 20
12.5
 11
200
 21
12.5
  0
LINE
  5
58
100
AcDbEntity
  8
ROTULO_2H
  6
ByLayer
 62
  256
370
   -1
100
AcDbLine
 10
25
 20
16
 11
200
 21
16
  0
LINE
  5
59
100
AcDbEntity
  8
ROTULO_2H
  6
ByLayer
 62
  256
370
   -1
100
AcDbLine
 10
25
 20
17.5
 11
200
 21
17.5
  0
LINE
  5
5A
100
AcDbEntity
  8
ROTULO_2H
  6
ByLayer
 62
  256
370
   -1
100
AcDbLine
 10
25
 20
22.5
 11
200
 21
22.5
  0
LINE
  5
5B
100
AcDbEntity
  8
ROTULO_2H
  6
ByLayer
 62
  256
370
   -1
100
AcDbLine
 10
25
 20
26
 11
200
 21
26
  0
LINE
  5
5C
100
AcDbEntity
  8
ROTULO_2H
  6
ByLayer
 62
  256
370
   -1
100
AcDbLine
 10
25
 20
27.5
 11
200
 21
27.5
  0
LINE
  5
5D
100
AcDbEntity
  8
ROTULO_2B
  6
ByLayer
 62
  256
370
   -1
100
AcDbLine
 10
60
 20
10
 11
60
 21
30
  0
LINE
  5
5E
100
AcDbEntity
  8
ROTULO_2B
  6
ByLayer
 62
  256
370
   -1
100
AcDbLine
 10
165
 20
10
 11
165
 21
30
  0
CIRCLE
  5
5F
100
AcDbEntity
  8
GEOMETRIA
  6
ByLayer
 62
  256
370
   -1
100
AcDbCircle
 10
74
 20
86
 40
30
  0
CIRCLE
  5
60
100
AcDbEntity
  8
GEOMETRIA
  6
ByLayer
 62
  256
370
   -1
100
AcDbCircle
 10
151
 20
86
 40
30
  0
CIRCLE
  5
61
100
AcDbEntity
  8
GEOMETRIA
  6
ByLayer
 62
  256
370
   -1
100
AcDbCircle
 10
74
 20
158.5
 40
30
  0
LWPOLYLINE
  5
62
100
AcDbEntity
  8
GEOMETRIA
  6
ByLayer
 62
  256
370
   -1
100
AcDbPolyline
 90
    4
 70
    1
 43
0
 10
121
 20
128.5
 10
181
 20
128.5
 10
181
 20
188.5
 10
121
 20
188.5
  0
CIRCLE
  5
63
100
AcDbEntity
  8
GEOMETRIA
  6
ByLayer
 62
  256
370
   -1
100
AcDbCircle
 10
151
 20
158.5
 40
30
  0
LWPOLYLINE
  5
64
100
AcDbEntity
  8
GEOMETRIA
  6
ByLayer
 62
  256
370
   -1
100
AcDbPolyline
 90
    4
 70
    1
 43
0
 10
44
 20
201
 10
104
 20
201
 10
104
 20
261
 10
44
 20
261
  0
CIRCLE
  5
65
100
AcDbEntity
  8
GEOMETRIA
  6
ByLayer
 62
  256
370
   -1
100
AcDbCircle
 10
74
 20
231
 40
30
  0
LWPOLYLINE
  5
66
100
AcDbEntity
  8
GEOMETRIA
  6
ByLayer
 62
  256
370
   -1
100
AcDbPolyline
 90
    4
 70
    1
 43
0
 10
121
 20
201
 10
181
 20
201
 10
181
 20
261
 10
121
 20
261
  0
CIRCLE
  5
67
100
AcDbEntity
  8
GEOMETRIA
  6
ByLayer
 62
  256
370
   -1
100
AcDbCircle
 10
151
 20
231
 40
30
  0
LINE
  5
68
100
AcDbEntity
  8
GEOMETRIA
  6
ByLayer
 62
  256
370
   -1
100
AcDbLine
 10
151
 20
261
 11
151
 21
201
  0
LINE
  5
69
100
AcDbEntity
  8
GEOMETRIA
  6
ByLayer
 62
  256
370
   -1
100
AcDbLine
 10
121
 20
231
 11
181
 21
231
  0
LINE
  5
6A
100
AcDbEntity
  8
GEOMETRIA
  6
ByLayer
 62
  256
370
   -1
100
AcDbLine
 10
74
 20
261
 11
74
 21
201
  0
LINE
  5
6B
100
AcDbEntity
  8
GEOMETRIA
  6
ByLayer
 62
  256
370
   -1
100
AcDbLine
 10
48.01923788646684
 20
216
 11
99.98076211353316
 21
216
  0
LINE
  5
6C
100
AcDbEntity
  8
GEOMETRIA
  6
ByLayer
 62
  256
370
   -1
100
AcDbLine
 10
99.98076211353316
 20
216
 11
74
 21
261
  0
LINE
  5
6D
100
AcDbEntity
  8
GEOMETRIA
  6
ByLayer
 62
  256
370
   -1
100
AcDbLine
 10
74
 20
261
 11
48.01923788646684
 21
216
  0
LINE
  5
6E
100
AcDbEntity
  8
GEOMETRIA
  6
ByLayer
 62
  256
370
   -1
100
AcDbLine
 10
121
 20
231
 11
151
 21
261
  0
LINE
  5
6F
100
AcDbEntity
  8
GEOMETRIA
  6
ByLayer
 62
  256
370
   -1
100
AcDbLine
 10
151
 20
261
 11
181
 21
231
  0
LINE
  5
70
100
AcDbEntity
  8
GEOMETRIA
  6
ByLayer
 62
  256
370
   -1
100
AcDbLine
 10
181
 20
231
 11
151
 21
201
  0
LINE
  5
71
100
AcDbEntity
  8
GEOMETRIA
  6
ByLayer
 62
  256
370
   -1
100
AcDbLine
 10
151
 20
201
 11
121
 21
231
  0
CIRCLE
  5
72
100
AcDbEntity
  8
2H
  6
ByLayer
 62
  256
370
   -1
100
AcDbCircle
 10
74
 20
230.9999999999997
 40
30.00000000000021
  0
LINE
  5
73
100
AcDbEntity
  8
2B
  6
ByLayer
 62
  256
370
   -1
100
AcDbLine
 10
74.00000000000004
 20
260.9999999999999
 11
48.01923788646684
 21
216
  0
LINE
  5
74
100
AcDbEntity
  8
2B
  6
ByLayer
 62
  256
370
   -1
100
AcDbLine
 10
48.01923788646684
 20
216
 11
99.98076211353228
 21
216
  0
LINE
  5
75
100
AcDbEntity
  8
2B
  6
ByLayer
 62
  256
370
   -1
100
AcDbLine
 10
99.98076211353228
 20
216
 11
73.99999999999997
 21
260.9999999999999
  0
LINE
  5
76
100
AcDbEntity
  8
GEOMETRIA
  6
ByLayer
 62
  256
370
   -1
100
AcDbLine
 10
74
 20
188.5
 11
74
 21
128.5
  0
LINE
  5
77
100
AcDbEntity
  8
GEOMETRIA
  6
ByLayer
 62
  256
370
   -1
100
AcDbLine
 10
44
 20
158.5
 11
104
 21
158.5
  0
LINE
  5
78
100
AcDbEntity
  8
GEOMETRIA
  6
ByLayer
 62
  256
370
   -1
100
AcDbLine
 10
89
 20
184.4807621135332
 11
89
 21
132.5192378864668
  0
CIRCLE
  5
79
100
AcDbEntity
  8
2H
  6
ByLayer
 62
  256
370
   -1
100
AcDbCircle
 10
74
 20
158.5
 40
30
  0
CIRCLE
  5
7A
100
AcDbEntity
  8
GEOMETRIA
  6
ByLayer
 62
  256
370
   -1
100
AcDbCircle
 10
74.00000000000003
 20
188.4999999999999
 40
35.26711513754876
  0
LINE
  5
7B
100
AcDbEntity
  8
2B
  6
ByLayer
 62
  256
370
   -1
100
AcDbLine
 10
74.00000000000003
 20
188.4999999999999
 11
45.46830451114524
 21
167.7705098312479
  0
LINE
  5
7C
100
AcDbEntity
  8
2B
  6
ByLayer
 62
  256
370
   -1
100
AcDbLine
 10
74
 20
188.4999999999999
 11
102.5316954888548
 21
167.7705098312479
  0
LINE
  5
7D
100
AcDbEntity
  8
2B
  6
ByLayer
 62
  256
370
   -1
100
AcDbLine
 10
102.5316954888548
 20
167.7705098312479
 11
91.6335575687753
 21
134.2294901687524
  0
LINE
  5
7E
100
AcDbEntity
  8
2B
  6
ByLayer
 62
  256
370
   -1
100
AcDbLine
 10
91.63355756877525
 20
134.2294901687522
 11
56.36644243122655
 21
134.2294901687511
  0
LINE
  5
7F
100
AcDbEntity
  8
2B
  6
ByLayer
 62
  256
370
   -1
100
AcDbLine
 10
56.36644243122655
 20
134.2294901687511
 11
45.4683045111452
 21
167.770509831248
  0
LINE
  5
80
100
AcDbEntity
  8
GEOMETRIA
  6
ByLayer
 62
  256
370
   -1
100
AcDbLine
 10
121
 20
158.5
 11
181
 21
158.5
  0
LINE
  5
81
100
AcDbEntity
  8
GEOMETRIA
  6
ByLayer
 62
  256
370
   -1
100
AcDbLine
 10
151
 20
188.5
 11
151
 21
128.5
  0
LINE
  5
82
100
AcDbEntity
  8
2B
  6
ByLayer
 62
  256
370
   -1
100
AcDbLine
 10
151
 20
261
 11
121
 21
231
  0
LINE
  5
83
100
AcDbEntity
  8
2B
  6
ByLayer
 62
  256
370
   -1
100
AcDbLine
 10
121
 20
231
 11
151
 21
201
  0
LINE
  5
84
100
AcDbEntity
  8
2B
  6
ByLayer
 62
  256
370
   -1
100
AcDbLine
 10
151
 20
201
 11
181
 21
230.9999949213428
  0
LINE
  5
85
100
AcDbEntity
  8
2B
  6
ByLayer
 62
  256
370
   -1
100
AcDbLine
 10
181
 20
230.9999949213428
 11
151
 21
261
  0
CIRCLE
  5
86
100
AcDbEntity
  8
2H
  6
ByLayer
 62
  256
370
   -1
100
AcDbCircle
 10
151
 20
231
 40
30
  0
CIRCLE
  5
87
100
AcDbEntity
  8
2H
  6
ByLayer
 62
  256
370
   -1
100
AcDbCircle
 10
151
 20
158.5
 40
29.99999999999999
  0
LINE
  5
88
100
AcDbEntity
  8
2B
  6
ByLayer
 62
  256
370
   -1
100
AcDbLine
 10
151
 20
188.5
 11
125.0192378864668
 21
173.5
  0
LINE
  5
89
100
AcDbEntity
  8
2B
  6
ByLayer
 62
  256
370
   -1
100
AcDbLine
 10
125.0192378864668
 20
173.5
 11
125.0192378864668
 21
143.5
  0
LINE
  5
8A
100
AcDbEntity
  8
2B
  6
ByLayer
 62
  256
370
   -1
100
AcDbLine
 10
125.0192378864668
 20
143.5
 11
151
 21
128.5
  0
LINE
  5
8B
100
AcDbEntity
  8
2B
  6
ByLayer
 62
  256
370
   -1
100
AcDbLine
 10
151
 20
128.5
 11
176.9807621135332
 21
143.5
  0
LINE
  5
8C
100
AcDbEntity
  8
2B
  6
ByLayer
 62
  256
370
   -1
100
AcDbLine
 10
176.9807621135332
 20
143.5
 11
176.9807621135332
 21
173.5
  0
LINE
  5
8D
100
AcDbEntity
  8
2B
  6
ByLayer
 62
  256
370
   -1
100
AcDbLine
 10
176.9807621135332
 20
173.5
 11
151
 21
188.5
  0
CIRCLE
  5
8E
100
AcDbEntity
  8
2H
  6
ByLayer
 62
  256
370
   -1
100
AcDbCircle
 10
74
 20
86
 40
30
  0
CIRCLE
  5
8F
100
AcDbEntity
  8
2H
  6
ByLayer
 62
  256
370
   -1
100
AcDbCircle
 10
151
 20
86
 40
30
  0
CIRCLE
  5
90
100
AcDbEntity
  8
GEOMETRIA
  6
ByLayer
 62
  256
370
   -1
100
AcDbCircle
 10
74
 20
116
 40
25.98076211353322
  0
LINE
  5
91
100
AcDbEntity
  8
2B
  6
ByLayer
 62
  256
370
   -1
100
AcDbLine
 10
74.00000163320864
 20
116
 11
50.58125750600597
 21
104.7499999999999
  0
LINE
  5
92
100
AcDbEntity
  8
2B
  6
ByLayer
 62
  256
370
   -1
100
AcDbLine
 10
74
 20
115.999999215432
 11
97.41874249399403
 21
104.7499999999999
  0
CIRCLE
  5
93
100
AcDbEntity
  8
GEOMETRIA
  6
ByLayer
 62
  256
370
   -1
100
AcDbCircle
 10
50.58125750600594
 20
104.7499999999999
 40
25.98076177380531
  0
LINE
  5
94
100
AcDbEntity
  8
2B
  6
ByLayer
 62
  256
370
   -1
100
AcDbLine
 10
50.58125750600594
 20
104.7499999999999
 11
44.72657180006193
 21
79.43750036776609
  0
LINE
  5
95
100
AcDbEntity
  8
2B
  6
ByLayer
 62
  256
370
   -1
100
AcDbLine
 10
97.41874249399403
 20
104.7499999999999
 11
103.2734281999382
 21
79.43750036776655
  0
CIRCLE
  5
96
100
AcDbEntity
  8
GEOMETRIA
  6
ByLayer
 62
  256
370
   -1
100
AcDbCircle
 10
44.72657180006193
 20
79.43750036776609
 40
25.98076177380527
  0
LINE
  5
97
100
AcDbEntity
  8
2B
  6
ByLayer
 62
  256
370
   -1
100
AcDbLine
 10
44.72657180006193
 20
79.43750036776609
 11
60.82695666989665
 21
59.04687533098956
  0
LINE
  5
98
100
AcDbEntity
  8
2B
  6
ByLayer
 62
  256
370
   -1
100
AcDbLine
 10
60.82695666989665
 20
59.04687533098956
 11
87.17304333010418
 21
59.04687533098995
  0
LINE
  5
99
100
AcDbEntity
  8
2B
  6
ByLayer
 62
  256
370
   -1
100
AcDbLine
 10
87.17304333010418
 20
59.04687533098995
 11
103.2734281999382
 21
79.43750036776655
  0
CIRCLE
  5
9A
100
AcDbEntity
  8
GEOMETRIA
  6
ByLayer
 62
  256
370
   -1
100
AcDbCircle
 10
151
 20
115.9999999999999
 40
22.96100594190542
  0
CIRCLE
  5
9B
100
AcDbEntity
  8
GEOMETRIA
  6
ByLayer
 62
  256
370
   -1
100
AcDbCircle
 10
129.7867965644035
 20
107.2132034355964
 40
22.96100594190541
  0
CIRCLE
  5
9C
100
AcDbEntity
  8
GEOMETRIA
  6
ByLayer
 62
  256
370
   -1
100
AcDbCircle
 10
120.9999999999993
 20
86
 40
22.96100594190558
  0
CIRCLE
  5
9D
100
AcDbEntity
  8
GEOMETRIA
  6
ByLayer
 62
  256
370
   -1
100
AcDbCircle
 10
129.7867965644035
 20
64.78679656440363
 40
22.96100594190521
  0
CIRCLE
  5
9E
100
AcDbEntity
  8
GEOMETRIA
  6
ByLayer
 62
  256
370
   -1
100
AcDbCircle
 10
150.9999999999997
 20
56
 40
22.9610059419052
  0
CIRCLE
  5
9F
100
AcDbEntity
  8
GEOMETRIA
  6
ByLayer
 62
  256
370
   -1
100
AcDbCircle
 10
172.2132034355961
 20
64.78679656440323
 40
22.9610059419045
  0
CIRCLE
  5
A0
100
AcDbEntity
  8
GEOMETRIA
  6
ByLayer
 62
  256
370
   -1
100
AcDbCircle
 10
181
 20
85.99999999999855
 40
22.96100594190449
  0
CIRCLE
  5
A1
100
AcDbEntity
  8
GEOMETRIA
  6
ByLayer
 62
  256
370
   -1
100
AcDbCircle
 10
172.2132034355922
 20
107.2132034355922
 40
22.96100594190177
  0
LINE
  5
A2
100
AcDbEntity
  8
2B
  6
ByLayer
 62
  256
370
   -1
100
AcDbLine
 10
151.0000000000007
 20
115.9999999999982
 11
129.7867965644035
 21
107.2132034355964
  0
LINE
  5
A3
100
AcDbEntity
  8
2B
  6
ByLayer
 62
  256
370
   -1
100
AcDbLine
 10
129.7867965644035
 20
107.2132034355964
 11
121
 21
85.99999999999989
  0
LINE
  5
A4
100
AcDbEntity
  8
2B
  6
ByLayer
 62
  256
370
   -1
100
AcDbLine
 10
121
 20
85.99999999999989
 11
129.7867965644035
 21
64.78679656440363
  0
LINE
  5
A5
100
AcDbEntity
  8
2B
  6
ByLayer
 62
  256
370
   -1
100
AcDbLine
 10
129.7867965644035
 20
64.78679656440363
 11
150.9999999999997
 21
56
  0
LINE
  5
A6
100
AcDbEntity
  8
2B
  6
ByLayer
 62
  256
370
   -1
100
AcDbLine
 10
150.9999999999997
 20
56
 11
172.2132034355961
 21
64.78679656440323
  0
LINE
  5
A7
100
AcDbEntity
  8
2B
  6
ByLayer
 62
  256
370
   -1
100
AcDbLine
 10
172.2132034355961
 20
64.78679656440323
 11
181
 21
86.00000000000148
  0
LINE
  5
A8
100
AcDbEntity
  8
2B
  6
ByLayer
 62
  256
370
   -1
100
AcDbLine
 10
181
 20
86.00000000000148
 11
172.2132034355953
 21
107.2132034355936
  0
LINE
  5
A9
100
AcDbEntity
  8
2B
  6
ByLayer
 62
  256
370
   -1
100
AcDbLine
 10
172.2132034355953
 20
107.2132034355936
 11
151.0000000000015
 21
116
  0
LINE
  5
AA
100
AcDbEntity
  8
2B
  6
ByLayer
 62
  256
370
   -1
100
AcDbLine
 10
129.7867965644036
 20
252.2132034355964
 11
172.2132034355964
 21
252.2132034355964
  0
LINE
  5
AB
100
AcDbEntity
  8
2B
  6
ByLayer
 62
  256
370
   -1
100
AcDbLine
 10
172.2132034355964
 20
252.2132034355964
 11
172.2132034355964
 21
209.7867965644036
  0
LINE
  5
AC
100
AcDbEntity
  8
2B
  6
ByLayer
 62
  256
370
   -1
100
AcDbLine
 10
172.2132034355964
 20
209.7867965644036
 11
129.7867965644036
 21
209.7867965644036
  0
LINE
  5
AD
100
AcDbEntity
  8
2B
  6
ByLayer
 62
  256
370
   -1
100
AcDbLine
 10
129.7867965644036
 20
209.7867965644036
 11
129.7867965644036
 21
252.2132034355964
  0
LINE
  5
AE
100
AcDbEntity
  8
2H
  6
ByLayer
 62
  256
370
   -1
100
AcDbLine
 10
74
 20
188.4999999999999
 11
56.36644243122684
 21
134.2294901687511
  0
LINE
  5
AF
100
AcDbEntity
  8
2H
  6
ByLayer
 62
  256
370
   -1
100
AcDbLine
 10
56.36644243122684
 20
134.2294901687511
 11
102.5316954888548
 21
167.770509831248
  0
LINE
  5
B0
100
AcDbEntity
  8
2H
  6
ByLayer
 62
  256
370
   -1
100
AcDbLine
 10
102.5316954888548
 20
167.770509831248
 11
45.46830451114523
 21
167.7705098312479
  0
LINE
  5
B1
100
AcDbEntity
  8
2H
  6
ByLayer
 62
  256
370
   -1
100
AcDbLine
 10
45.46830451114523
 20
167.7705098312479
 11
91.63355756877459
 21
134.2294901687522
  0
LINE
  5
B2
100
AcDbEntity
  8
2H
  6
ByLayer
 62
  256
370
   -1
100
AcDbLine
 10
91.63355756877459
 20
134.2294901687522
 11
74
 21
188.4999999999999
  0
LINE
  5
B3
100
AcDbEntity
  8
2B
  6
ByLayer
 62
  256
370
   -1
100
AcDbLine
 10
67.26458035130655
 20
167.7705098312479
 11
63.10186207992017
 21
154.9589803375027
  0
LINE
  5
B4
100
AcDbEntity
  8
2B
  6
ByLayer
 62
  256
370
   -1
100
AcDbLine
 10
63.10186207992017
 20
154.9589803375027
 11
74.00000000000085
 21
147.0410196624965
  0
LINE
  5
B5
100
AcDbEntity
  8
2B
  6
ByLayer
 62
  256
370
   -1
100
AcDbLine
 10
74.00000000000085
 20
147.0410196624965
 11
84.89813792008093
 21
154.9589803375027
  0
LINE
  5
B6
100
AcDbEntity
  8
2B
  6
ByLayer
 62
  256
370
   -1
100
AcDbLine
 10
84.89813792008093
 20
154.9589803375027
 11
80.73541964869415
 21
167.7705098312479
  0
LINE
  5
B7
100
AcDbEntity
  8
2B
  6
ByLayer
 62
  256
370
   -1
100
AcDbLine
 10
80.73541964869415
 20
167.7705098312479
 11
67.26458035130655
 21
167.7705098312479
  0
LINE
  5
B8
100
AcDbEntity
  8
2H
  6
ByLayer
 62
  256
370
   -1
100
AcDbLine
 10
151.0000000000001
 20
188.4999999999999
 11
125.0192378864668
 21
143.5
  0
LINE
  5
B9
100
AcDbEntity
  8
2H
  6
ByLayer
 62
  256
370
   -1
100
AcDbLine
 10
125.0192378864668
 20
143.5
 11
176.9807621135332
 21
143.5000000000009
  0
LINE
  5
BA
100
AcDbEntity
  8
2H
  6
ByLayer
 62
  256
370
   -1
100
AcDbLine
 10
176.9807621135332
 20
143.5000000000009
 11
151.0000000000001
 21
188.4999999999999
  0
LINE
  5
BB
100
AcDbEntity
  8
2H
  6
ByLayer
 62
  256
370
   -1
100
AcDbLine
 10
125.019237886467
 20
173.5000000000001
 11
176.980762113533
 21
173.5000000000001
  0
LINE
  5
BC
100
AcDbEntity
  8
2H
  6
ByLayer
 62
  256
370
   -1
100
AcDbLine
 10
176.980762113533
 20
173.5000000000001
 11
151
 21
128.5
  0
LINE
  5
BD
100
AcDbEntity
  8
2H
  6
ByLayer
 62
  256
370
   -1
100
AcDbLine
 10
151
 20
128.5
 11
125.0192378864674
 21
173.5000000000001
  0
LINE
  5
BE
100
AcDbEntity
  8
2B
  6
ByLayer
 62
  256
370
   -1
100
AcDbLine
 10
142.3397459621558
 20
173.5000000000001
 11
133.6794919243115
 21
158.5000000000003
  0
LINE
  5
BF
100
AcDbEntity
  8
2B
  6
ByLayer
 62
  256
370
   -1
100
AcDbLine
 10
133.6794919243115
 20
158.5000000000003
 11
142.3397459621557
 21
143.5000000000003
  0
LINE
  5
C0
100
AcDbEntity
  8
2B
  6
ByLayer
 62
  256
370
   -1
100
AcDbLine
 10
142.3397459621557
 20
143.5000000000003
 11
159.6602540378446
 21
143.5000000000006
  0
LINE
  5
C1
100
AcDbEntity
  8
2B
  6
ByLayer
 62
  256
370
   -1
100
AcDbLine
 10
159.6602540378446
 20
143.5000000000006
 11
168.3205080756888
 21
158.5000000000005
  0
LINE
  5
C2
100
AcDbEntity
  8
2B
  6
ByLayer
 62
  256
370
   -1
100
AcDbLine
 10
168.3205080756888
 20
158.5000000000005
 11
159.6602540378445
 21
173.5000000000001
  0
LINE
  5
C3
100
AcDbEntity
  8
2B
  6
ByLayer
 62
  256
370
   -1
100
AcDbLine
 10
159.6602540378445
 20
173.5000000000001
 11
142.3397459621558
 21
173.5000000000001
  0
LINE
  5
C4
100
AcDbEntity
  8
2H
  6
ByLayer
 62
  256
370
   -1
100
AcDbLine
 10
74.00000000000003
 20
115.999999215432
 11
44.72657180006193
 21
79.43750036776609
  0
LINE
  5
C5
100
AcDbEntity
  8
2H
  6
ByLayer
 62
  256
370
   -1
100
AcDbLine
 10
44.72657180006193
 20
79.43750036776609
 11
87.17304333010412
 21
59.04687533098994
  0
LINE
  5
C6
100
AcDbEntity
  8
2H
  6
ByLayer
 62
  256
370
   -1
100
AcDbLine
 10
87.17304333010412
 20
59.04687533098994
 11
97.41874249399405
 21
104.7499999999999
  0
LINE
  5
C7
100
AcDbEntity
  8
2H
  6
ByLayer
 62
  256
370
   -1
100
AcDbLine
 10
97.41874249399405
 20
104.7499999999999
 11
50.58125750600593
 21
104.7499999999999
  0
LINE
  5
C8
100
AcDbEntity
  8
2H
  6
ByLayer
 62
  256
370
   -1
100
AcDbLine
 10
50.58125750600593
 20
104.7499999999999
 11
60.82695666989665
 21
59.04687533098956
  0
LINE
  5
C9
100
AcDbEntity
  8
2H
  6
ByLayer
 62
  256
370
   -1
100
AcDbLine
 10
60.82695666989665
 20
59.04687533098956
 11
103.2734281999382
 21
79.43750036776653
  0
LINE
  5
CA
100
AcDbEntity
  8
2H
  6
ByLayer
 62
  256
370
   -1
100
AcDbLine
 10
103.2734281999382
 20
79.43750036776653
 11
74.00000000000001
 21
115.999999215432
  0
LINE
  5
CB
100
AcDbEntity
  8
2H
  6
ByLayer
 62
  256
370
   -1
100
AcDbLine
 10
74.00000000000001
 20
115.999999215432
 11
60.82695666989665
 21
59.04687533098956
  0
LINE
  5
CC
100
AcDbEntity
  8
2H
  6
ByLayer
 62
  256
370
   -1
100
AcDbLine
 10
60.82695666989665
 20
59.04687533098956
 11
97.41874249399406
 21
104.75
  0
LINE
  5
CD
100
AcDbEntity
  8
2H
  6
ByLayer
 62
  256
370
   -1
100
AcDbLine
 10
97.41874249399406
 20
104.75
 11
44.72657180006194
 21
79.43750036776609
  0
LINE
  5
CE
100
AcDbEntity
  8
2H
  6
ByLayer
 62
  256
370
   -1
100
AcDbLine
 10
44.72657180006194
 20
79.43750036776609
 11
103.2734281999381
 21
79.4375003677665
  0
LINE
  5
CF
100
AcDbEntity
  8
2H
  6
ByLayer
 62
  256
370
   -1
100
AcDbLine
 10
103.2734281999381
 20
79.4375003677665
 11
50.58125750600594
 21
104.7499999999998
  0
LINE
  5
D0
100
AcDbEntity
  8
2H
  6
ByLayer
 62
  256
370
   -1
100
AcDbLine
 10
50.58125750600594
 20
104.7499999999998
 11
87.17304333010409
 21
59.04687533098995
  0
LINE
  5
D1
100
AcDbEntity
  8
2H
  6
ByLayer
 62
  256
370
   -1
100
AcDbLine
 10
87.17304333010409
 20
59.04687533098995
 11
74.00000000000001
 21
115.999999215432
  0
LINE
  5
D2
100
AcDbEntity
  8
2H
  6
ByLayer
 62
  256
370
   -1
100
AcDbLine
 10
151.0000000000034
 20
115.9999999999993
 11
129.7867965644035
 21
64.78679656440363
  0
LINE
  5
D3
100
AcDbEntity
  8
2H
  6
ByLayer
 62
  256
370
   -1
100
AcDbLine
 10
129.7867965644035
 20
64.78679656440363
 11
181
 21
86.00000000000148
  0
LINE
  5
D4
100
AcDbEntity
  8
2H
  6
ByLayer
 62
  256
370
   -1
100
AcDbLine
 10
181
 20
86.00000000000148
 11
129.7867965644035
 21
107.2132034355964
  0
LINE
  5
D5
100
AcDbEntity
  8
2H
  6
ByLayer
 62
  256
370
   -1
100
AcDbLine
 10
129.7867965644035
 20
107.2132034355964
 11
150.9999999999993
 21
56.00000000000014
  0
LINE
  5
D6
100
AcDbEntity
  8
2H
  6
ByLayer
 62
  256
370
   -1
100
AcDbLine
 10
150.9999999999993
 20
56.00000000000014
 11
172.2132034355953
 21
107.2132034355936
  0
LINE
  5
D7
100
AcDbEntity
  8
2H
  6
ByLayer
 62
  256
370
   -1
100
AcDbLine
 10
172.2132034355953
 20
107.2132034355936
 11
121
 21
85.99999999999987
  0
LINE
  5
D8
100
AcDbEntity
  8
2H
  6
ByLayer
 62
  256
370
   -1
100
AcDbLine
 10
121
 20
85.99999999999987
 11
172.2132034355961
 21
64.78679656440323
  0
LINE
  5
D9
100
AcDbEntity
  8
2H
  6
ByLayer
 62
  256
370
   -1
100
AcDbLine
 10
172.2132034355961
 20
64.78679656440323
 11
151.0000000000034
 21
115.9999999999993
  0
LINE
  5
DA
100
AcDbEntity
  8
2B
  6
ByLayer
 62
  256
370
   -1
100
AcDbLine
 10
151.0000000000025
 20
98.42640687119241
 11
142.2132034355984
 21
94.78679656440333
  0
LINE
  5
DB
100
AcDbEntity
  8
2B
  6
ByLayer
 62
  256
370
   -1
100
AcDbLine
 10
142.2132034355984
 20
94.78679656440333
 11
138.5735931288077
 21
85.99999999999793
  0
LINE
  5
DC
100
AcDbEntity
  8
2B
  6
ByLayer
 62
  256
370
   -1
100
AcDbLine
 10
138.5735931288077
 20
85.99999999999793
 11
142.2132034355961
 21
77.2132034355963
  0
LINE
  5
DD
100
AcDbEntity
  8
2B
  6
ByLayer
 62
  256
370
   -1
100
AcDbLine
 10
142.2132034355961
 20
77.2132034355963
 11
150.9999999999988
 21
73.57359312880732
  0
LINE
  5
DE
100
AcDbEntity
  8
2B
  6
ByLayer
 62
  256
370
   -1
100
AcDbLine
 10
150.9999999999988
 20
73.57359312880732
 11
159.7867965644035
 21
77.21320343559732
  0
LINE
  5
DF
100
AcDbEntity
  8
2B
  6
ByLayer
 62
  256
370
   -1
100
AcDbLine
 10
159.7867965644035
 20
77.21320343559732
 11
163.4264068711932
 21
86.00000000000155
  0
LINE
  5
E0
100
AcDbEntity
  8
2B
  6
ByLayer
 62
  256
370
   -1
100
AcDbLine
 10
163.4264068711932
 20
86.00000000000155
 11
159.7867965644051
 21
94.78679656440379
  0
LINE
  5
E1
100
AcDbEntity
  8
2B
  6
ByLayer
 62
  256
370
   -1
100
AcDbLine
 10
159.7867965644051
 20
94.78679656440379
 11
151.0000000000025
 21
98.42640687119241
  0
LINE
  5
E2
100
AcDbEntity
  8
2B
  6
ByLayer
 62
  256
370
   -1
100
AcDbLine
 10
64.99279166737438
 20
104.7499999999999
 11
53.7337803742864
 21
90.68749988495502
  0
LINE
  5
E3
100
AcDbEntity
  8
2B
  6
ByLayer
 62
  256
370
   -1
100
AcDbLine
 10
53.7337803742864
 20
90.68749988495502
 11
57.64725682281711
 21
73.23060415188577
  0
LINE
  5
E4
100
AcDbEntity
  8
2B
  6
ByLayer
 62
  256
370
   -1
100
AcDbLine
 10
57.64725682281711
 20
73.23060415188577
 11
74.00000000000041
 21
65.37500055447852
  0
LINE
  5
E5
100
AcDbEntity
  8
2B
  6
ByLayer
 62
  256
370
   -1
100
AcDbLine
 10
74.00000000000041
 20
65.37500055447852
 11
90.35274317718341
 21
73.23060415188607
  0
LINE
  5
E6
100
AcDbEntity
  8
2B
  6
ByLayer
 62
  256
370
   -1
100
AcDbLine
 10
90.35274317718341
 20
73.23060415188607
 11
94.26621962571383
 21
90.68749988495517
  0
LINE
  5
E7
100
AcDbEntity
  8
2B
  6
ByLayer
 62
  256
370
   -1
100
AcDbLine
 10
94.26621962571383
 20
90.68749988495517
 11
83.00720833262579
 21
104.7499999999999
  0
LINE
  5
E8
100
AcDbEntity
  8
2B
  6
ByLayer
 62
  256
370
   -1
100
AcDbLine
 10
83.00720833262579
 20
104.7499999999999
 11
64.99279166737438
 21
104.7499999999999
  0
LINE
  5
E9
100
AcDbEntity
  8
2B
  6
ByLayer
 62
  256
370
   -1
100
AcDbLine
 10
74.00000000000013
 20
93.50000018105409
 11
68.14531417191429
 21
90.68750012803704
  0
LINE
  5
EA
100
AcDbEntity
  8
2B
  6
ByLayer
 62
  256
370
   -1
100
AcDbLine
 10
68.14531417191429
 20
90.68750012803704
 11
66.73211423207742
 21
84.57758693409139
  0
LINE
  5
EB
100
AcDbEntity
  8
2B
  6
ByLayer
 62
  256
370
   -1
100
AcDbLine
 10
66.73211423207742
 20
84.57758693409139
 11
70.84747719936766
 21
79.43750036776628
  0
LINE
  5
EC
100
AcDbEntity
  8
2B
  6
ByLayer
 62
  256
370
   -1
100
AcDbLine
 10
70.84747719936766
 20
79.43750036776628
 11
77.15252280063291
 21
79.4375003677663
  0
LINE
  5
ED
100
AcDbEntity
  8
2B
  6
ByLayer
 62
  256
370
   -1
100
AcDbLine
 10
77.15252280063291
 20
79.4375003677663
 11
81.26788576792305
 21
84.57758693409143
  0
LINE
  5
EE
100
AcDbEntity
  8
2B
  6
ByLayer
 62
  256
370
   -1
100
AcDbLine
 10
81.26788576792305
 20
84.57758693409143
 11
79.85468582808609
 21
90.68750012803706
  0
LINE
  5
EF
100
AcDbEntity
  8
2B
  6
ByLayer
 62
  256
370
   -1
100
AcDbLine
 10
79.85468582808609
 20
90.68750012803706
 11
74.00000000000013
 21
93.50000018105409
  0
LINE
  5
F0
100
AcDbEntity
  8
GEOMETRIA
  6
ByLayer
 62
  256
370
   -1
100
AcDbLine
 10
48.01923788646684
 20
236
 11
48.01923788646684
 21
246
  0
LINE
  5
F1
100
AcDbEntity
  8
GEOMETRIA
  6
ByLayer
 62
  256
370
   -1
100
AcDbLine
 10
48.01923788646684
 20
246
 11
48.01923788646684
 21
256
  0
LINE
  5
F2
100
AcDbEntity
  8
GEOMETRIA
  6
ByLayer
 62
  256
370
   -1
100
AcDbLine
 10
99.98076211353317
 20
236
 11
99.98076211353317
 21
246
  0
LINE
  5
F3
100
AcDbEntity
  8
GEOMETRIA
  6
ByLayer
 62
  256
370
   -1
100
AcDbLine
 10
99.98076211353317
 20
246
 11
99.98076211353317
 21
256
  0
LINE
  5
F4
100
AcDbEntity
  8
2B
  6
ByLayer
 62
  256
370
   -1
100
AcDbLine
 10
48.01923788646683
 20
245.9999999999997
 11
99.98076211353317
 21
246.0000000000002
  0
LINE
  5
F5
100
AcDbEntity
  8
2B
  6
ByLayer
 62
  256
370
   -1
100
AcDbLine
 10
99.98076211353296
 20
246.0000000000002
 11
74
 21
201
  0
LINE
  5
F6
100
AcDbEntity
  8
2B
  6
ByLayer
 62
  256
370
   -1
100
AcDbLine
 10
74
 20
201
 11
48.01923788646684
 21
245.9999999999997
  0
ENDSEC
  0
SECTION
  2
OBJECTS
  0
DICTIONARY
  5
C
330
0
100
AcDbDictionary
281
    1
  3
ACAD_GROUP
350
D
  0
DICTIONARY
  5
D
330
C
100
AcDbDictionary
281
    1
  0
PLOTSETTINGS
  5
F7
100
AcDbPlotSettings
  6
1x1
 40
0
 41
0
 42
0
 43
0
  0
ENDSEC
  0
EOF
